<svg
              t="1700120860030"
              class="icon"
              viewBox="0 0 1024 1024"
              version="1.1"
              xmlns="http://www.w3.org/2000/svg"
              p-id="5314"
            >
              <path
                d="M682.666667 930.133333H341.333333c-136.533333 0-247.466667-110.933333-247.466666-247.466666V341.333333c0-136.533333 110.933333-247.466667 247.466666-247.466666h341.333334c136.533333 0 247.466667 110.933333 247.466666 247.466666v341.333334c0 136.533333-110.933333 247.466667-247.466666 247.466666z m-341.333334-768C243.2 162.133333 162.133333 243.2 162.133333 341.333333v341.333334c0 98.133333 81.066667 179.2 179.2 179.2h341.333334c98.133333 0 179.2-81.066667 179.2-179.2V341.333333c0-98.133333-81.066667-179.2-179.2-179.2H341.333333z"
                p-id="5315"
                fill="#F4F4F4"
              ></path>
              <path
                d="M426.666667 802.133333c-89.6 0-162.133333-72.533333-162.133334-162.133333 0-89.6 72.533333-162.133333 162.133334-162.133333 17.066667 0 34.133333 12.8 34.133333 34.133333s-12.8 34.133333-34.133333 34.133333c-51.2 0-93.866667 42.666667-93.866667 93.866667s42.666667 93.866667 93.866667 93.866667 93.866667-42.666667 93.866666-93.866667V256c0-17.066667 12.8-29.866667 25.6-29.866667 17.066667-4.266667 29.866667 8.533333 34.133334 21.333334 0 0 38.4 106.666667 140.8 106.666666 17.066667 0 34.133333 12.8 34.133333 34.133334s-12.8 29.866667-29.866667 29.866666c-59.733333 0-106.666667-25.6-136.533333-55.466666V640c0 89.6-72.533333 162.133333-162.133333 162.133333z"
                p-id="5316"
                fill="#F4F4F4"
              ></path>
            </svg>